PERFORMER "Various Artists"
TITLE Mud
FILE "https://www.youtube.com/watch?v=rAN2aNeJRqc" MP3
REM MUSICBRAINZ_ALBUM_ID 2c80ed61-fa71-465a-bbfa-a44b22af986d
REM MUSICBRAINZ_ALBUM_ARTIST_ID 89ad4ac3-39f7-470e-963a-56509c546377
REM DATE 2013-04-23
  TRACK 01 AUDIO
    PERFORMER "David Wingo and Lucero"
    TITLE Opening
    REM MUSICBRAINZ_TRACK_ID b2bf1bc5-ed32-4a13-ba6b-e7c77baf456f
    REM MUSICBRAINZ_ARTIST_ID "80035dac-72ad-4b11-8046-f774070427a5; 1a681dad-cb15-43be-9d0f-4a807badff9f"
    INDEX 01 00:00:00
  TRACK 02 AUDIO
    PERFORMER "David Wingo"
    TITLE "Where'd he go"
    REM MUSICBRAINZ_TRACK_ID 83fbbe1e-290e-4654-916f-75b464d8647c
    REM MUSICBRAINZ_ARTIST_ID 80035dac-72ad-4b11-8046-f774070427a5
    INDEX 01 05:02:74
  TRACK 03 AUDIO
    PERFORMER "David Wingo"
    TITLE "Leaving island"
    REM MUSICBRAINZ_TRACK_ID 913dac8e-7bf6-4e22-b87c-44191afdeb65
    REM MUSICBRAINZ_ARTIST_ID 80035dac-72ad-4b11-8046-f774070427a5
    INDEX 01 06:55:00
  TRACK 04 AUDIO
    PERFORMER Lucero
    TITLE "Take you away"
    REM MUSICBRAINZ_TRACK_ID 00f35d6b-18aa-41fe-b154-9dc26b7619b0
    REM MUSICBRAINZ_ARTIST_ID 1a681dad-cb15-43be-9d0f-4a807badff9f
    INDEX 01 07:30:74
  TRACK 05 AUDIO
    PERFORMER "David Wingo"
    TITLE "Sleeping in trees"
    REM MUSICBRAINZ_TRACK_ID 1354ef6e-5504-45fa-aa07-1ec43ca224d0
    REM MUSICBRAINZ_ARTIST_ID 80035dac-72ad-4b11-8046-f774070427a5
    INDEX 01 08:50:74
  TRACK 06 AUDIO
    PERFORMER "David Wingo"
    TITLE Juniper
    REM MUSICBRAINZ_TRACK_ID a5d36a88-66c9-4d7b-87f1-393eacf77790
    REM MUSICBRAINZ_ARTIST_ID 80035dac-72ad-4b11-8046-f774070427a5
    INDEX 01 09:41:00
  TRACK 07 AUDIO
    PERFORMER "Dirty Three"
    TITLE "Alice wading"
    REM MUSICBRAINZ_TRACK_ID b1ec34f1-67a9-4556-8580-c07296ec2b76
    REM MUSICBRAINZ_ARTIST_ID af8bb921-4d67-4f0d-ba17-6215315f92e4
    INDEX 01 11:50:00
  TRACK 08 AUDIO
    PERFORMER "David Wingo"
    TITLE "Back to the island"
    REM MUSICBRAINZ_TRACK_ID 6274e0cf-b2d5-40d4-939a-504d72b7adad
    REM MUSICBRAINZ_ARTIST_ID 80035dac-72ad-4b11-8046-f774070427a5
    INDEX 01 20:14:00
  TRACK 09 AUDIO
    PERFORMER "David Wingo"
    TITLE "Tom blankenship"
    REM MUSICBRAINZ_TRACK_ID 78bf9a38-d893-4ee3-b8d2-098f18cf2817
    REM MUSICBRAINZ_ARTIST_ID 80035dac-72ad-4b11-8046-f774070427a5
    INDEX 01 21:02:00
  TRACK 10 AUDIO
    PERFORMER "Dirty Three"
    TITLE "This night"
    REM MUSICBRAINZ_TRACK_ID 8b18228f-8d3f-4161-ba50-3821d99b65e5
    REM MUSICBRAINZ_ARTIST_ID af8bb921-4d67-4f0d-ba17-6215315f92e4
    INDEX 01 23:02:00
  TRACK 11 AUDIO
    PERFORMER "Ben Nichols"
    TITLE "Davy brown"
    REM MUSICBRAINZ_TRACK_ID 657c2e26-e249-44de-88bf-98aabd3518f3
    REM MUSICBRAINZ_ARTIST_ID ba132a74-82a8-4702-a60b-ca2098113581
    INDEX 01 26:59:00
  TRACK 12 AUDIO
    PERFORMER "David Wingo"
    TITLE Carver
    REM MUSICBRAINZ_TRACK_ID 9e32ee2e-fe32-4438-a677-b620e46189a5
    REM MUSICBRAINZ_ARTIST_ID 80035dac-72ad-4b11-8046-f774070427a5
    INDEX 01 30:18:74
  TRACK 13 AUDIO
    PERFORMER Lucero
    TITLE "Everything you need"
    REM MUSICBRAINZ_TRACK_ID 46fcbe73-9830-4259-8947-d45b984950f1
    REM MUSICBRAINZ_ARTIST_ID 1a681dad-cb15-43be-9d0f-4a807badff9f
    INDEX 01 31:03:74
  TRACK 14 AUDIO
    PERFORMER "Ben Nichols"
    TITLE "The kid"
    REM MUSICBRAINZ_TRACK_ID d6b924e8-935e-41a3-bc45-81bad7a12fc3
    REM MUSICBRAINZ_ARTIST_ID ba132a74-82a8-4702-a60b-ca2098113581
    INDEX 01 32:23:74
  TRACK 15 AUDIO
    PERFORMER "David Wingo"
    TITLE King
    REM MUSICBRAINZ_TRACK_ID 140cde7f-d8ad-4c6e-bd7c-64608ec54b9b
    REM MUSICBRAINZ_ARTIST_ID 80035dac-72ad-4b11-8046-f774070427a5
    INDEX 01 37:57:00
  TRACK 16 AUDIO
    PERFORMER "David Wingo"
    TITLE "Stealing motor"
    REM MUSICBRAINZ_TRACK_ID bcbcc7ba-f8cf-4106-bcf5-f750f781db8d
    REM MUSICBRAINZ_ARTIST_ID 80035dac-72ad-4b11-8046-f774070427a5
    INDEX 01 39:45:74
  TRACK 17 AUDIO
    PERFORMER "David Wingo"
    TITLE Hotel
    REM MUSICBRAINZ_TRACK_ID 2ab62cf9-27a7-4159-9da7-d319c4aaf36b
    REM MUSICBRAINZ_ARTIST_ID 80035dac-72ad-4b11-8046-f774070427a5
    INDEX 01 41:08:74
  TRACK 18 AUDIO
    PERFORMER "David Wingo"
    TITLE "Looking for juniper"
    REM MUSICBRAINZ_TRACK_ID 8ea0a8aa-552f-4edf-b02a-0ee46def915f
    REM MUSICBRAINZ_ARTIST_ID 80035dac-72ad-4b11-8046-f774070427a5
    INDEX 01 42:19:00
  TRACK 19 AUDIO
    PERFORMER "David Wingo"
    TITLE "Leaving bar"
    REM MUSICBRAINZ_TRACK_ID 8c0a9d10-8ecc-40a3-ba26-1a28d6f52d84
    REM MUSICBRAINZ_ARTIST_ID 80035dac-72ad-4b11-8046-f774070427a5
    INDEX 01 42:54:74
  TRACK 20 AUDIO
    PERFORMER "David Wingo"
    TITLE "Lost love"
    REM MUSICBRAINZ_TRACK_ID cb8908b7-6fff-4c09-854b-e7493a48b24e
    REM MUSICBRAINZ_ARTIST_ID 80035dac-72ad-4b11-8046-f774070427a5
    INDEX 01 44:32:74
  TRACK 21 AUDIO
    PERFORMER "David Wingo"
    TITLE "Something else on his mind"
    REM MUSICBRAINZ_TRACK_ID 9f9a7329-eaf2-45b0-87b4-57ac40de0478
    REM MUSICBRAINZ_ARTIST_ID 80035dac-72ad-4b11-8046-f774070427a5
    INDEX 01 46:15:00
  TRACK 22 AUDIO
    PERFORMER "David Wingo"
    TITLE "One last letter"
    REM MUSICBRAINZ_TRACK_ID 5313a85b-7a92-4157-8c7e-83a09da5a7de
    REM MUSICBRAINZ_ARTIST_ID 80035dac-72ad-4b11-8046-f774070427a5
    INDEX 01 47:30:00
  TRACK 23 AUDIO
    PERFORMER "Jeff McIlwain"
    TITLE "May pearl"
    REM MUSICBRAINZ_TRACK_ID 7b847148-7232-4a08-844d-b1ee3d13defe
    REM MUSICBRAINZ_ARTIST_ID 1435a32d-b2e4-47f0-b28d-f75b85e7717f
    INDEX 01 48:20:00
  TRACK 24 AUDIO
    PERFORMER Lucero
    TITLE Snakebite
    REM MUSICBRAINZ_TRACK_ID 72ad4eca-4416-4352-aa03-6f23e9d529ff
    REM MUSICBRAINZ_ARTIST_ID 1a681dad-cb15-43be-9d0f-4a807badff9f
    INDEX 01 50:25:74
  TRACK 25 AUDIO
    PERFORMER "David Wingo"
    TITLE Clinic
    REM MUSICBRAINZ_TRACK_ID 43a5862e-6f8e-4d08-bc97-365de39cd42a
    REM MUSICBRAINZ_ARTIST_ID 80035dac-72ad-4b11-8046-f774070427a5
    INDEX 01 53:06:00
  TRACK 26 AUDIO
    PERFORMER "David Wingo"
    TITLE "Mud and juniper"
    REM MUSICBRAINZ_TRACK_ID 998d54b8-79f0-42e3-bbaa-37ff5368b1f0
    REM MUSICBRAINZ_ARTIST_ID 80035dac-72ad-4b11-8046-f774070427a5
    INDEX 01 54:09:74
  TRACK 27 AUDIO
    PERFORMER "David Wingo"
    TITLE Aftermath
    REM MUSICBRAINZ_TRACK_ID 298686b0-cf6d-41c4-85f5-9fc5e155be51
    REM MUSICBRAINZ_ARTIST_ID 80035dac-72ad-4b11-8046-f774070427a5
    INDEX 01 55:45:00
  TRACK 28 AUDIO
    PERFORMER "Dirty Three"
    TITLE "In Fall"
    REM MUSICBRAINZ_TRACK_ID 1b8c58ac-5734-49b3-b91b-ce4f95d90ca6
    REM MUSICBRAINZ_ARTIST_ID af8bb921-4d67-4f0d-ba17-6215315f92e4
    INDEX 01 58:01:74
  TRACK 29 AUDIO
    PERFORMER "David Wingo and Lucero"
    TITLE Ending
    REM MUSICBRAINZ_TRACK_ID 237b046e-1138-4984-80d6-cde357f51c1b
    REM MUSICBRAINZ_ARTIST_ID "80035dac-72ad-4b11-8046-f774070427a5; 1a681dad-cb15-43be-9d0f-4a807badff9f"
    INDEX 01 61:55:74
